<?xml version="1.0" encoding="iso-8859-1"?>
<!-- Generator: Adobe Illustrator 19.0.0, SVG Export Plug-In . SVG Version: 6.00 Build 0)  -->
<svg version="1.1" id="Layer_1" xmlns="http://www.w3.org/2000/svg" xmlns:xlink="http://www.w3.org/1999/xlink" x="0px" y="0px"
	 viewBox="0 0 512 512" style="enable-background:new 0 0 512 512;" xml:space="preserve">
<g transform="translate(1 1)">
	<g>
		<path style="fill:#FFE100;" d="M468.333,144.067H41.667c-5.12,0-8.533-3.413-8.533-8.533S36.547,127,41.667,127h426.667
			c5.12,0,8.533,3.413,8.533,8.533S473.453,144.067,468.333,144.067z"/>
		<path style="fill:#FFE100;" d="M468.333,306.2H41.667c-5.12,0-8.533-3.413-8.533-8.533s3.413-8.533,8.533-8.533h426.667
			c5.12,0,8.533,3.413,8.533,8.533S473.453,306.2,468.333,306.2z"/>
		<path style="fill:#FFE100;" d="M468.333,468.333H41.667c-5.12,0-8.533-3.413-8.533-8.533s3.413-8.533,8.533-8.533h426.667
			c5.12,0,8.533,3.413,8.533,8.533S473.453,468.333,468.333,468.333z"/>
	</g>
	<g>
		<path style="fill:#FDCC00;" d="M41.667,502.467H7.533V24.6c0-9.387,7.68-17.067,17.067-17.067s17.067,7.68,17.067,17.067V502.467z
			"/>
		<path style="fill:#FDCC00;" d="M502.467,502.467h-34.133V24.6c0-9.387,7.68-17.067,17.067-17.067s17.067,7.68,17.067,17.067
			V502.467z"/>
	</g>
	<g>
		<path style="fill:#FFE100;" d="M169.667,127H84.333V52.76c0-5.973,5.12-11.093,11.093-11.093h64c5.12,0,10.24,5.12,10.24,11.093
			V127z"/>
		<path style="fill:#FFE100;" d="M297.667,127h-85.333V52.76c0-5.973,5.12-11.093,11.093-11.093h64c5.12,0,10.24,5.12,10.24,11.093
			V127z"/>
		<path style="fill:#FFE100;" d="M425.667,127h-85.333V52.76c0-5.973,5.12-11.093,11.093-11.093h64c5.12,0,10.24,5.12,10.24,11.093
			V127z"/>
		<path style="fill:#FFE100;" d="M169.667,289.133H84.333v-74.24c0-5.973,5.12-11.093,11.093-11.093h64
			c5.973,0,11.093,5.12,11.093,11.093v74.24H169.667z"/>
		<path style="fill:#FFE100;" d="M297.667,289.133h-85.333v-74.24c0-5.973,5.12-11.093,11.093-11.093h64
			c5.973,0,11.093,5.12,11.093,11.093v74.24H297.667z"/>
		<path style="fill:#FFE100;" d="M425.667,289.133h-85.333v-74.24c0-5.973,5.12-11.093,11.093-11.093h64
			c5.973,0,11.093,5.12,11.093,11.093v74.24H425.667z"/>
		<path style="fill:#FFE100;" d="M169.667,451.267H84.333v-74.24c0-5.973,5.12-11.093,11.093-11.093h64
			c5.973,0,11.093,5.12,11.093,11.093v74.24H169.667z"/>
		<path style="fill:#FFE100;" d="M297.667,451.267h-85.333v-74.24c0-5.973,5.12-11.093,11.093-11.093h64
			c5.973,0,11.093,5.12,11.093,11.093v74.24H297.667z"/>
		<path style="fill:#FFE100;" d="M425.667,451.267h-85.333v-74.24c0-5.973,5.12-11.093,11.093-11.093h64
			c5.973,0,11.093,5.12,11.093,11.093v74.24H425.667z"/>
	</g>
	<path d="M50.2,511H-1V24.6C-1,10.093,10.093-1,24.6-1s25.6,11.093,25.6,25.6V511z M16.067,493.933h17.067V24.6
		c0-5.12-3.413-8.533-8.533-8.533s-8.533,3.413-8.533,8.533V493.933z"/>
	<path d="M511,511h-51.2V24.6c0-14.507,11.093-25.6,25.6-25.6S511,10.093,511,24.6V511z M476.867,493.933h17.067V24.6
		c0-5.12-3.413-8.533-8.533-8.533s-8.533,3.413-8.533,8.533V493.933z"/>
	<path d="M178.2,135.533H75.8V52.76c0-11.093,8.533-19.627,19.627-19.627h64c10.24,0,18.773,8.533,18.773,19.627V135.533z
		 M92.867,118.467h68.267V52.76c0-1.707-0.853-2.56-2.56-2.56h-64c-0.853,0-1.707,0.853-1.707,2.56V118.467z"/>
	<path d="M306.2,135.533H203.8V52.76c0-11.093,8.533-19.627,19.627-19.627h64c10.24,0,18.773,8.533,18.773,19.627V135.533z
		 M220.867,118.467h68.267V52.76c0-1.707-0.853-2.56-2.56-2.56h-64c-0.853,0-1.707,0.853-1.707,2.56V118.467z"/>
	<path d="M434.2,135.533H331.8V52.76c0-11.093,8.533-19.627,19.627-19.627h64c10.24,0,18.773,8.533,18.773,19.627V135.533z
		 M348.867,118.467h68.267V52.76c0-1.707-0.853-2.56-2.56-2.56h-64c-0.853,0-1.707,0.853-1.707,2.56V118.467z"/>
	<rect x="41.667" y="118.467" width="426.667" height="17.067"/>
	<path d="M178.2,297.667H75.8v-82.773c0-11.093,8.533-19.627,19.627-19.627h64c11.093,0,19.627,8.533,19.627,19.627v82.773H178.2z
		 M92.867,280.6h68.267v-65.707c0-0.853-0.853-2.56-2.56-2.56h-64c-0.853,0-2.56,0.853-2.56,2.56V280.6H92.867z"/>
	<path d="M306.2,297.667H203.8v-82.773c0-11.093,8.533-19.627,19.627-19.627h64c11.093,0,19.627,8.533,19.627,19.627v82.773H306.2z
		 M220.867,280.6h68.267v-65.707c0-0.853-0.853-2.56-2.56-2.56h-64c-0.853,0-2.56,0.853-2.56,2.56V280.6H220.867z"/>
	<path d="M434.2,297.667H331.8v-82.773c0-11.093,8.533-19.627,19.627-19.627h64c11.093,0,19.627,8.533,19.627,19.627v82.773H434.2z
		 M348.867,280.6h68.267v-65.707c0-0.853-0.853-2.56-2.56-2.56h-64c-0.853,0-2.56,0.853-2.56,2.56V280.6H348.867z"/>
	<rect x="41.667" y="280.6" width="426.667" height="17.067"/>
	<path d="M178.2,459.8H75.8v-82.773c0-11.093,8.533-19.627,19.627-19.627h64c11.093,0,19.627,8.533,19.627,19.627V459.8H178.2z
		 M92.867,442.733h68.267v-65.707c0-0.853-0.853-2.56-2.56-2.56h-64c-0.853,0-2.56,0.853-2.56,2.56v65.707H92.867z"/>
	<path d="M306.2,459.8H203.8v-82.773c0-11.093,8.533-19.627,19.627-19.627h64c11.093,0,19.627,8.533,19.627,19.627V459.8H306.2z
		 M220.867,442.733h68.267v-65.707c0-0.853-0.853-2.56-2.56-2.56h-64c-0.853,0-2.56,0.853-2.56,2.56v65.707H220.867z"/>
	<path d="M434.2,459.8H331.8v-82.773c0-11.093,8.533-19.627,19.627-19.627h64c11.093,0,19.627,8.533,19.627,19.627V459.8H434.2z
		 M348.867,442.733h68.267v-65.707c0-0.853-0.853-2.56-2.56-2.56h-64c-0.853,0-2.56,0.853-2.56,2.56v65.707H348.867z"/>
	<rect x="41.667" y="442.733" width="426.667" height="17.067"/>
</g>
<g>
</g>
<g>
</g>
<g>
</g>
<g>
</g>
<g>
</g>
<g>
</g>
<g>
</g>
<g>
</g>
<g>
</g>
<g>
</g>
<g>
</g>
<g>
</g>
<g>
</g>
<g>
</g>
<g>
</g>
</svg>
